<svg t="1751524414404" class="icon" viewBox="0 0 1024 1024" version="1.1" xmlns="http://www.w3.org/2000/svg" p-id="6942" width="200" height="200"><path d="M857.31 538.93V88.97C857.31 39.882 817.427 0 768.34 0H412.124L345.31 0.682 55.904 289.406v645.625c0 49.086 39.883 88.969 88.97 88.969H768.34c49.086 0 88.97-39.883 88.97-88.97v-39.882h-66.813v17.726c0 24.543-19.771 44.655-44.655 44.655H167.03c-24.544 0-44.656-19.771-44.656-44.655V356.218h200.437c49.087 0 88.97-39.882 88.97-88.969V66.812h334.06c24.544 0 44.656 19.771 44.656 44.655V539.27h66.812zM353.491 241.682c0 26.248-21.475 47.723-47.723 47.723H159.19l194.301-194.3v146.577z" p-id="6943"></path><path d="M307.473 842.652V620.74h53.859v175.212h85.901v46.7h-139.76zM694.71 730.844c0 17.726-3.068 33.747-9.204 48.064-6.135 14.658-14.317 26.93-25.225 37.156s-23.52 18.407-38.519 23.861c-14.999 5.795-31.02 8.522-48.405 8.522s-33.406-2.727-48.064-8.522c-14.658-5.795-27.61-13.635-38.178-23.861-10.908-10.226-19.09-22.839-25.225-37.156-6.136-14.658-9.204-30.679-9.204-48.064 0-17.725 3.068-33.747 9.204-48.064 6.136-14.317 14.317-26.588 25.225-36.474 10.908-9.885 23.52-17.725 38.178-23.18 14.658-5.454 30.68-8.18 48.064-8.18s33.406 2.726 48.405 8.18c14.999 5.455 27.611 13.295 38.52 23.18 10.907 9.886 19.089 22.157 25.224 36.474 6.136 13.976 9.204 29.998 9.204 48.064z m-57.608 0c0-9.544-1.705-18.748-4.773-26.93-3.068-8.521-7.5-15.68-12.953-21.475-5.454-5.795-12.272-10.567-20.112-13.976-7.84-3.408-16.362-5.113-25.907-5.113s-18.066 1.705-25.566 5.113c-7.84 3.41-14.317 8.181-20.112 13.976s-9.885 12.954-12.953 21.476c-3.068 8.522-4.431 17.385-4.431 26.93 0 9.885 1.704 19.43 4.772 27.61 3.068 8.522 7.5 15.68 12.953 21.817 5.454 6.135 12.272 10.908 19.771 14.317 7.84 3.408 16.362 5.113 25.566 5.113s18.067-1.705 25.566-5.113c7.84-3.41 14.317-8.182 20.112-14.317 5.795-6.136 9.885-13.295 13.294-21.817 3.409-8.522 4.773-17.725 4.773-27.61z m252.25 112.15c-14.658 3.408-30.338 5.453-47.382 5.453-17.726 0-34.088-2.727-49.087-8.522s-27.952-13.635-38.52-23.861c-10.907-10.226-19.088-22.498-25.224-36.815-6.136-14.317-9.204-30.338-9.204-47.723 0-17.726 3.068-33.747 9.204-48.405 6.136-14.317 14.658-26.588 25.566-36.815 10.908-10.226 23.52-18.066 38.178-23.52 14.658-5.454 30.338-8.181 47.382-8.181 17.726 0 33.747 2.727 49.087 7.84 14.999 5.454 27.27 12.612 36.815 21.475l-33.747 38.52c-5.113-6.136-12.272-10.909-20.794-15-8.522-3.749-18.407-5.794-29.315-5.794-9.545 0-18.067 1.704-25.907 5.113s-14.999 8.181-20.794 14.317c-5.795 6.136-10.567 13.635-13.635 21.816-3.409 8.522-4.772 17.726-4.772 27.611 0 10.227 1.363 19.771 4.431 28.293 3.068 8.522 7.159 16.022 12.954 22.157 5.794 6.136 12.953 10.909 21.475 14.317s18.066 5.113 28.975 5.113c6.135 0 12.271-0.34 17.725-1.363 5.795-1.023 10.908-2.386 15.68-4.431v-40.565h-42.61v-43.292h91.697v117.604c-11.249 6.476-23.861 10.908-38.178 14.657z" p-id="6944"></path></svg>