<?xml version="1.0" standalone="no"?><!DOCTYPE svg PUBLIC "-//W3C//DTD SVG 1.1//EN" "http://www.w3.org/Graphics/SVG/1.1/DTD/svg11.dtd"><svg t="1757405228380" class="icon" viewBox="0 0 1024 1024" version="1.1" xmlns="http://www.w3.org/2000/svg" p-id="6091" xmlns:xlink="http://www.w3.org/1999/xlink" width="200" height="200"><path d="M877.738667 451.029333a365.696 365.696 0 1 0-412.032 362.666667v32.298667h-177.962667a19.498667 19.498667 0 0 0-19.498667 19.498666v53.632a19.498667 19.498667 0 0 0 19.498667 19.498667h448.597333a19.498667 19.498667 0 0 0 19.498667-19.498667v-53.632a19.498667 19.498667 0 0 0-19.498667-19.498666h-177.962666v-32.298667a365.696 365.696 0 0 0 319.36-362.666667z m-448-323.712a271.445333 271.445333 0 0 1 164.309333 0 12.8 12.8 0 0 1 3.712 22.784 146.346667 146.346667 0 0 1-171.776 0 12.8 12.8 0 0 1 3.882667-22.784z m82.176 538.282667a214.570667 214.570667 0 1 1 214.570666-214.570667 214.528 214.528 0 0 1-214.485333 214.570667z" fill="#bfbfbf" p-id="6092"></path><path d="M510.506667 443.989333m-122.410667 0a122.410667 122.410667 0 1 0 244.821333 0 122.410667 122.410667 0 1 0-244.821333 0Z" fill="#bfbfbf" p-id="6093"></path></svg>