<?xml version="1.0" standalone="no"?><!DOCTYPE svg PUBLIC "-//W3C//DTD SVG 1.1//EN" "http://www.w3.org/Graphics/SVG/1.1/DTD/svg11.dtd"><svg t="1751524665709" class="icon" viewBox="0 0 1069 1024" version="1.1" xmlns="http://www.w3.org/2000/svg" p-id="8109" xmlns:xlink="http://www.w3.org/1999/xlink" width="208.7890625" height="200"><path d="M1039.982163 591.340022H847.054627L727.188406 450.925307l-14.84058-7.991082-6.849498-1.141583-13.698997 4.566332-7.991081 6.849499-116.441472 401.837235L448.64214 21.690078l-10.274247-14.84058-14.84058-6.849498h-9.132664l-9.132665 3.424749-10.274247 10.274248-164.38796 589.056856H28.539576q-11.415831 0-19.977703 8.561873T0 632.437012q0 12.557414 8.561873 21.119287T28.539576 662.118172h224.891862q9.132664 0 17.123746-6.278707t10.274247-15.411371L410.9699 171.237458l117.583054 826.506132 2.283166 7.991081 7.991082 11.415831q2.283166 2.283166 5.707915 3.424749l2.283166 1.141583 11.415831 2.283166 9.132664-2.283166q3.424749-1.141583 5.707915-2.283166l3.42475-2.283166 7.991081-10.274248 135.848383-474.898551 91.326645 108.450391 6.849498 5.707915 5.707915 2.283166 215.759198 1.141583q12.557414 0 21.119286-7.991081t8.561873-20.548495q0-12.557414-8.561873-21.119287T1039.982163 591.340022z" p-id="8110"></path></svg>